<mxfile host="Electron" modified="2024-06-17T09:43:11.613Z" agent="Mozilla/5.0 (Windows NT 10.0; Win64; x64) AppleWebKit/537.36 (KHTML, like Gecko) draw.io/22.1.2 Chrome/114.0.5735.289 Electron/25.9.4 Safari/537.36" etag="nODvQTv9ZNhTFtU_cBpd" version="22.1.2" type="device">
  <diagram name="Page-1" id="7ZnsxoaL_BHCXnx-ISNz">
    <mxGraphModel dx="1178" dy="742" grid="1" gridSize="10" guides="1" tooltips="1" connect="1" arrows="1" fold="1" page="1" pageScale="1" pageWidth="1169" pageHeight="827" math="0" shadow="0">
      <root>
        <mxCell id="0" />
        <mxCell id="1" parent="0" />
        <mxCell id="hg8_UCo2Yx6Xpll2Kdqw-2" value="us-east-1&lt;br&gt;" style="points=[[0,0],[0.25,0],[0.5,0],[0.75,0],[1,0],[1,0.25],[1,0.5],[1,0.75],[1,1],[0.75,1],[0.5,1],[0.25,1],[0,1],[0,0.75],[0,0.5],[0,0.25]];outlineConnect=0;gradientColor=none;html=1;whiteSpace=wrap;fontSize=12;fontStyle=0;container=1;pointerEvents=0;collapsible=0;recursiveResize=0;shape=mxgraph.aws4.group;grIcon=mxgraph.aws4.group_region;strokeColor=#00A4A6;fillColor=none;verticalAlign=top;align=left;spacingLeft=30;fontColor=#147EBA;dashed=1;" parent="1" vertex="1">
          <mxGeometry x="256" y="80" width="860" height="480" as="geometry" />
        </mxCell>
        <mxCell id="hg8_UCo2Yx6Xpll2Kdqw-24" style="edgeStyle=orthogonalEdgeStyle;rounded=0;orthogonalLoop=1;jettySize=auto;html=1;entryX=0.5;entryY=0;entryDx=0;entryDy=0;" parent="hg8_UCo2Yx6Xpll2Kdqw-2" source="hg8_UCo2Yx6Xpll2Kdqw-4" target="hg8_UCo2Yx6Xpll2Kdqw-19" edge="1">
          <mxGeometry relative="1" as="geometry" />
        </mxCell>
        <mxCell id="hg8_UCo2Yx6Xpll2Kdqw-4" value="" style="sketch=0;outlineConnect=0;fontColor=#232F3E;gradientColor=none;fillColor=#ED7100;strokeColor=none;dashed=0;verticalLabelPosition=bottom;verticalAlign=top;align=center;html=1;fontSize=12;fontStyle=0;aspect=fixed;pointerEvents=1;shape=mxgraph.aws4.lambda_function;" parent="hg8_UCo2Yx6Xpll2Kdqw-2" vertex="1">
          <mxGeometry x="147" y="41" width="80" height="80" as="geometry" />
        </mxCell>
        <mxCell id="hg8_UCo2Yx6Xpll2Kdqw-22" style="edgeStyle=orthogonalEdgeStyle;rounded=0;orthogonalLoop=1;jettySize=auto;html=1;exitX=1;exitY=0.5;exitDx=0;exitDy=0;entryX=0;entryY=0.5;entryDx=0;entryDy=0;" parent="hg8_UCo2Yx6Xpll2Kdqw-2" source="hg8_UCo2Yx6Xpll2Kdqw-19" edge="1">
          <mxGeometry relative="1" as="geometry">
            <mxPoint x="720.5" y="276" as="targetPoint" />
          </mxGeometry>
        </mxCell>
        <mxCell id="hg8_UCo2Yx6Xpll2Kdqw-23" value="Failed" style="edgeLabel;html=1;align=center;verticalAlign=middle;resizable=0;points=[];" parent="hg8_UCo2Yx6Xpll2Kdqw-22" vertex="1" connectable="0">
          <mxGeometry x="0.1002" relative="1" as="geometry">
            <mxPoint as="offset" />
          </mxGeometry>
        </mxCell>
        <mxCell id="a0YT_-UlRaEpT_Y4WuY6-8" style="edgeStyle=orthogonalEdgeStyle;rounded=0;orthogonalLoop=1;jettySize=auto;html=1;exitX=0;exitY=0.5;exitDx=0;exitDy=0;" edge="1" parent="hg8_UCo2Yx6Xpll2Kdqw-2" source="hg8_UCo2Yx6Xpll2Kdqw-19" target="a0YT_-UlRaEpT_Y4WuY6-6">
          <mxGeometry relative="1" as="geometry">
            <Array as="points">
              <mxPoint x="407" y="276" />
              <mxPoint x="407" y="276" />
            </Array>
          </mxGeometry>
        </mxCell>
        <mxCell id="a0YT_-UlRaEpT_Y4WuY6-9" value="Success" style="edgeLabel;html=1;align=center;verticalAlign=middle;resizable=0;points=[];" vertex="1" connectable="0" parent="a0YT_-UlRaEpT_Y4WuY6-8">
          <mxGeometry x="-0.2727" relative="1" as="geometry">
            <mxPoint as="offset" />
          </mxGeometry>
        </mxCell>
        <mxCell id="hg8_UCo2Yx6Xpll2Kdqw-19" value="" style="rhombus;whiteSpace=wrap;html=1;fillColor=#6666FF;" parent="hg8_UCo2Yx6Xpll2Kdqw-2" vertex="1">
          <mxGeometry x="498.5" y="236" width="80" height="80" as="geometry" />
        </mxCell>
        <mxCell id="NbMTZbJpFJf3nsek0LdS-1" value="On success, use SNS to notify via e-mail" style="rounded=1;whiteSpace=wrap;html=1;strokeWidth=2;fillWeight=4;hachureGap=8;hachureAngle=45;fillColor=#dae8fc;sketch=1;strokeColor=#6c8ebf;" parent="hg8_UCo2Yx6Xpll2Kdqw-2" vertex="1">
          <mxGeometry x="79" y="359" width="140" height="60" as="geometry" />
        </mxCell>
        <mxCell id="NbMTZbJpFJf3nsek0LdS-4" value="Amazon SNS" style="sketch=0;points=[[0,0,0],[0.25,0,0],[0.5,0,0],[0.75,0,0],[1,0,0],[0,1,0],[0.25,1,0],[0.5,1,0],[0.75,1,0],[1,1,0],[0,0.25,0],[0,0.5,0],[0,0.75,0],[1,0.25,0],[1,0.5,0],[1,0.75,0]];outlineConnect=0;fontColor=#232F3E;fillColor=#E7157B;strokeColor=#ffffff;dashed=0;verticalLabelPosition=bottom;verticalAlign=top;align=center;html=1;fontSize=12;fontStyle=0;aspect=fixed;shape=mxgraph.aws4.resourceIcon;resIcon=mxgraph.aws4.sns;" parent="hg8_UCo2Yx6Xpll2Kdqw-2" vertex="1">
          <mxGeometry x="107" y="240" width="80" height="80" as="geometry" />
        </mxCell>
        <mxCell id="NbMTZbJpFJf3nsek0LdS-5" value="" style="sketch=0;points=[[0,0,0],[0.25,0,0],[0.5,0,0],[0.75,0,0],[1,0,0],[0,1,0],[0.25,1,0],[0.5,1,0],[0.75,1,0],[1,1,0],[0,0.25,0],[0,0.5,0],[0,0.75,0],[1,0.25,0],[1,0.5,0],[1,0.75,0]];outlineConnect=0;fontColor=#232F3E;fillColor=#E7157B;strokeColor=#ffffff;dashed=0;verticalLabelPosition=bottom;verticalAlign=top;align=center;html=1;fontSize=12;fontStyle=0;aspect=fixed;shape=mxgraph.aws4.resourceIcon;resIcon=mxgraph.aws4.sns;" parent="hg8_UCo2Yx6Xpll2Kdqw-2" vertex="1">
          <mxGeometry x="723" y="249" width="54" height="54" as="geometry" />
        </mxCell>
        <mxCell id="NbMTZbJpFJf3nsek0LdS-6" value="On failure,use SNS to notify via e-mail" style="rounded=1;whiteSpace=wrap;html=1;strokeWidth=2;fillWeight=4;hachureGap=8;hachureAngle=45;fillColor=#dae8fc;sketch=1;strokeColor=#6c8ebf;" parent="hg8_UCo2Yx6Xpll2Kdqw-2" vertex="1">
          <mxGeometry x="703" y="350" width="137" height="60" as="geometry" />
        </mxCell>
        <mxCell id="a0YT_-UlRaEpT_Y4WuY6-6" value="Amazon Elastic File System" style="sketch=0;outlineConnect=0;fontColor=#232F3E;gradientColor=none;strokeColor=#ffffff;fillColor=#232F3E;dashed=0;verticalLabelPosition=middle;verticalAlign=bottom;align=center;html=1;whiteSpace=wrap;fontSize=10;fontStyle=1;spacing=3;shape=mxgraph.aws4.productIcon;prIcon=mxgraph.aws4.elastic_file_system;" vertex="1" parent="hg8_UCo2Yx6Xpll2Kdqw-2">
          <mxGeometry x="300" y="240" width="80" height="110" as="geometry" />
        </mxCell>
        <mxCell id="a0YT_-UlRaEpT_Y4WuY6-10" value="On success, Create a directory on mounted file system" style="rounded=1;whiteSpace=wrap;html=1;strokeWidth=2;fillWeight=4;hachureGap=8;hachureAngle=45;fillColor=#dae8fc;sketch=1;strokeColor=#6c8ebf;" vertex="1" parent="hg8_UCo2Yx6Xpll2Kdqw-2">
          <mxGeometry x="276" y="360" width="140" height="60" as="geometry" />
        </mxCell>
        <mxCell id="a0YT_-UlRaEpT_Y4WuY6-17" value="" style="shape=flexArrow;endArrow=classic;startArrow=classic;html=1;rounded=0;fillColor=#d5e8d4;strokeColor=#82b366;" edge="1" parent="hg8_UCo2Yx6Xpll2Kdqw-2">
          <mxGeometry width="100" height="100" relative="1" as="geometry">
            <mxPoint x="323" y="232" as="sourcePoint" />
            <mxPoint x="228.63087248322154" y="123" as="targetPoint" />
          </mxGeometry>
        </mxCell>
        <mxCell id="a0YT_-UlRaEpT_Y4WuY6-18" value="Mounted file system" style="edgeLabel;html=1;align=center;verticalAlign=middle;resizable=0;points=[];" vertex="1" connectable="0" parent="a0YT_-UlRaEpT_Y4WuY6-17">
          <mxGeometry x="-0.1021" y="3" relative="1" as="geometry">
            <mxPoint as="offset" />
          </mxGeometry>
        </mxCell>
        <mxCell id="a0YT_-UlRaEpT_Y4WuY6-2" value="" style="sketch=0;outlineConnect=0;fontColor=#232F3E;gradientColor=none;fillColor=#232F3D;strokeColor=none;dashed=0;verticalLabelPosition=bottom;verticalAlign=top;align=center;html=1;fontSize=12;fontStyle=0;aspect=fixed;pointerEvents=1;shape=mxgraph.aws4.user;" vertex="1" parent="hg8_UCo2Yx6Xpll2Kdqw-2">
          <mxGeometry x="-153" y="40" width="78" height="78" as="geometry" />
        </mxCell>
        <mxCell id="hg8_UCo2Yx6Xpll2Kdqw-9" style="edgeStyle=orthogonalEdgeStyle;rounded=0;orthogonalLoop=1;jettySize=auto;html=1;" parent="hg8_UCo2Yx6Xpll2Kdqw-2" source="a0YT_-UlRaEpT_Y4WuY6-2" target="hg8_UCo2Yx6Xpll2Kdqw-4" edge="1">
          <mxGeometry relative="1" as="geometry">
            <mxPoint x="175.49336087341408" y="79.99999999999977" as="sourcePoint" />
          </mxGeometry>
        </mxCell>
        <mxCell id="hg8_UCo2Yx6Xpll2Kdqw-10" value="Invoke lambda function via URL" style="edgeLabel;html=1;align=center;verticalAlign=middle;resizable=0;points=[];" parent="hg8_UCo2Yx6Xpll2Kdqw-9" vertex="1" connectable="0">
          <mxGeometry x="0.0052" y="2" relative="1" as="geometry">
            <mxPoint x="-1" as="offset" />
          </mxGeometry>
        </mxCell>
        <mxCell id="a0YT_-UlRaEpT_Y4WuY6-16" value="" style="endArrow=classic;html=1;rounded=0;entryX=1;entryY=0.5;entryDx=0;entryDy=0;entryPerimeter=0;" edge="1" parent="hg8_UCo2Yx6Xpll2Kdqw-2" target="NbMTZbJpFJf3nsek0LdS-4">
          <mxGeometry width="50" height="50" relative="1" as="geometry">
            <mxPoint x="298" y="280" as="sourcePoint" />
            <mxPoint x="348" y="232" as="targetPoint" />
          </mxGeometry>
        </mxCell>
        <mxCell id="a0YT_-UlRaEpT_Y4WuY6-19" value="Amazon SNS" style="sketch=0;points=[[0,0,0],[0.25,0,0],[0.5,0,0],[0.75,0,0],[1,0,0],[0,1,0],[0.25,1,0],[0.5,1,0],[0.75,1,0],[1,1,0],[0,0.25,0],[0,0.5,0],[0,0.75,0],[1,0.25,0],[1,0.5,0],[1,0.75,0]];outlineConnect=0;fontColor=#232F3E;fillColor=#E7157B;strokeColor=#ffffff;dashed=0;verticalLabelPosition=bottom;verticalAlign=top;align=center;html=1;fontSize=12;fontStyle=0;aspect=fixed;shape=mxgraph.aws4.resourceIcon;resIcon=mxgraph.aws4.sns;" vertex="1" parent="hg8_UCo2Yx6Xpll2Kdqw-2">
          <mxGeometry x="723" y="236" width="80" height="80" as="geometry" />
        </mxCell>
      </root>
    </mxGraphModel>
  </diagram>
</mxfile>
